<?xml version="1.0" standalone="no"?>
<!DOCTYPE svg PUBLIC "-//W3C//DTD SVG 20010904//EN"
 "http://www.w3.org/TR/2001/REC-SVG-20010904/DTD/svg10.dtd">
<svg version="1.0" xmlns="http://www.w3.org/2000/svg"
 width="2048.000000pt" height="2048.000000pt" viewBox="0 0 2048.000000 2048.000000"
 preserveAspectRatio="xMidYMid meet">
<metadata>
Created by potrace 1.14, written by Peter Selinger 2001-2017
</metadata>
<g transform="translate(0.000000,2048.000000) scale(0.100000,-0.100000)"
fill="#000000" stroke="none">
<path d="M9888 15935 c-2 -1 -57 -5 -123 -9 -131 -7 -201 -13 -255 -21 -19 -3
-53 -8 -75 -11 -22 -3 -78 -12 -125 -20 -47 -8 -98 -17 -115 -20 -144 -24
-566 -160 -662 -213 -10 -6 -64 -33 -120 -60 -100 -49 -256 -143 -341 -205
-175 -127 -389 -322 -512 -467 -30 -35 -58 -66 -61 -69 -16 -15 -153 -195
-197 -261 -216 -323 -391 -698 -507 -1084 -15 -49 -33 -108 -40 -130 -7 -22
-18 -64 -25 -94 l-13 -54 -24 59 c-80 191 -225 457 -340 623 -147 211 -266
347 -507 576 -136 130 -386 306 -576 407 -176 94 -495 216 -637 244 -6 1 -53
11 -105 23 -102 22 -184 38 -238 45 -162 22 -174 23 -300 32 -189 13 -703 5
-731 -11 -3 -2 -39 -7 -80 -11 -40 -3 -148 -22 -239 -41 -91 -19 -176 -36
-190 -39 -40 -8 -353 -114 -365 -123 -5 -5 -21 -12 -35 -16 -75 -22 -315 -151
-464 -250 -292 -192 -613 -516 -829 -838 -308 -457 -533 -1024 -667 -1677 -18
-85 -34 -168 -37 -185 -5 -32 -7 -49 -17 -105 -13 -73 -16 -98 -31 -210 -16
-132 -21 -177 -30 -275 -3 -38 -8 -83 -10 -100 -2 -16 -7 -79 -10 -140 -4 -60
-8 -135 -10 -165 -13 -166 -16 -816 -18 -3450 l-2 -2905 603 -1 602 -1 1 501
c6 4923 8 5538 24 5706 2 25 7 83 10 130 4 47 8 99 10 115 2 17 6 57 10 90 3
33 8 71 10 85 2 14 7 45 10 70 7 55 14 97 20 130 3 14 7 39 10 55 10 62 45
228 66 307 11 46 22 90 24 98 8 37 106 323 138 401 160 391 379 704 652 932
139 117 376 253 535 307 36 12 74 26 85 31 32 14 202 56 295 73 176 31 293 40
505 40 213 0 373 -12 505 -39 14 -2 50 -10 80 -16 171 -34 392 -113 533 -191
39 -21 71 -38 73 -38 12 0 193 -131 264 -192 87 -74 210 -203 287 -303 165
-211 333 -552 438 -890 63 -204 63 -201 -10 -240 -71 -38 -145 -62 -315 -105
-372 -93 -450 -133 -669 -348 -230 -225 -430 -481 -748 -957 -128 -192 -168
-272 -212 -430 -29 -105 -36 -281 -16 -413 8 -51 17 -114 20 -140 4 -26 8 -54
10 -62 9 -33 17 -139 17 -210 0 -62 -7 -97 -42 -200 -44 -130 -49 -168 -37
-290 7 -70 11 -99 22 -160 3 -14 8 -43 11 -65 24 -161 125 -509 201 -690 21
-52 90 -192 135 -275 94 -178 366 -489 633 -725 50 -44 92 -82 95 -85 17 -18
215 -184 265 -222 33 -25 85 -57 115 -70 50 -23 71 -30 135 -45 26 -6 124 -5
135 2 4 3 25 7 46 11 20 3 47 9 58 13 12 4 44 9 72 10 71 3 139 -33 225 -118
l68 -67 -2 -700 -2 -699 -110 -2 c-60 -1 -267 -4 -460 -7 -686 -11 -1281 -29
-1360 -40 -29 -5 -62 -12 -237 -52 -49 -11 -78 -22 -78 -31 0 -19 11735 -20
11747 0 6 9 219 12 1003 13 893 1 1255 6 1330 18 14 3 63 9 110 15 47 6 96 13
110 16 14 3 51 10 82 15 100 19 305 78 414 121 617 241 1037 706 1280 1414 57
166 130 476 149 630 3 28 8 59 10 70 2 11 7 52 10 90 4 39 9 84 11 100 24 196
24 767 -1 1045 -8 93 -16 167 -26 235 -8 61 -16 106 -44 270 -3 17 -8 36 -11
44 -2 8 -7 30 -10 50 -14 88 -85 321 -144 471 -150 376 -342 653 -640 920 -67
60 -266 186 -377 240 -62 30 -113 57 -112 60 0 3 34 30 76 60 139 101 290 265
441 480 66 95 191 336 250 486 42 105 104 296 122 379 7 28 14 59 16 70 3 11
7 31 10 45 3 14 9 41 14 60 4 19 12 58 16 85 4 28 8 57 10 65 15 81 40 331 49
485 5 83 5 505 0 590 -5 92 -16 237 -20 265 -1 14 -6 48 -9 75 -19 164 -41
284 -81 450 -35 149 -102 362 -135 432 -11 24 -20 45 -20 48 0 15 -113 234
-164 320 -206 341 -497 616 -831 783 -155 78 -334 142 -495 176 -102 22 -119
26 -165 31 -22 3 -51 7 -65 10 -34 6 -121 16 -200 22 -113 8 -6612 11 -6603 2
4 -4 35 -10 68 -13 33 -3 74 -8 90 -11 286 -55 509 -134 729 -259 82 -47 242
-151 256 -166 3 -4 14 -13 26 -21 96 -66 262 -223 463 -439 l105 -112 2395 3
c1318 2 2425 0 2460 -4 100 -12 130 -17 221 -39 47 -11 92 -21 100 -23 9 -2
60 -20 115 -40 348 -128 632 -390 794 -730 82 -171 161 -448 185 -650 4 -27 9
-66 11 -85 14 -114 20 -231 20 -440 -1 -266 -7 -361 -36 -540 -12 -69 -22
-134 -24 -145 -14 -96 -88 -325 -149 -457 -210 -459 -636 -760 -1181 -833 -27
-3 -63 -8 -80 -11 -40 -6 -643 -12 -1505 -16 l-705 -3 -71 120 c-39 66 -136
230 -214 365 -79 135 -159 271 -179 303 -46 75 -280 428 -323 488 -98 138
-215 279 -264 319 -48 39 -211 99 -311 116 -18 3 -61 11 -95 19 -45 9 -120 12
-264 9 l-200 -5 -28 143 c-28 144 -75 347 -120 513 -24 91 -119 383 -136 420
-5 11 -23 56 -40 100 -49 126 -60 150 -147 325 -109 218 -168 319 -281 480
-134 189 -213 282 -387 456 -326 325 -703 553 -1155 700 -94 31 -231 69 -285
80 -11 2 -42 8 -70 14 -76 16 -96 19 -140 25 -22 3 -51 8 -65 10 -39 7 -166
21 -270 31 -64 6 -507 14 -512 9z m392 -1489 c14 -3 47 -7 74 -10 251 -29 513
-104 731 -212 158 -77 178 -90 302 -181 205 -151 410 -386 536 -615 31 -56 23
-59 -48 -22 -63 34 -103 64 -240 185 -164 143 -248 191 -472 268 -81 27 -286
82 -358 96 -162 29 -211 35 -281 34 -93 -2 -198 -26 -281 -65 -32 -15 -60 -30
-63 -33 -10 -12 -196 -120 -240 -139 -42 -18 -209 -65 -275 -76 -16 -3 -55
-10 -85 -16 -30 -5 -70 -12 -87 -15 -120 -19 -140 -23 -252 -45 -209 -42 -315
-84 -550 -219 -197 -114 -282 -154 -411 -195 -110 -36 -461 -129 -465 -124 -5
6 98 223 146 310 214 389 479 655 834 838 144 74 386 161 510 184 17 3 41 7
55 10 82 17 228 37 310 42 52 4 97 8 99 10 6 5 482 -4 511 -10z m7635 -4579
c22 -3 67 -9 100 -12 96 -11 293 -54 388 -86 503 -167 832 -516 983 -1044 9
-33 17 -62 17 -65 0 -3 3 -15 8 -28 5 -13 11 -37 14 -55 3 -18 8 -45 12 -62 4
-16 7 -32 8 -35 1 -3 4 -26 8 -51 4 -25 9 -57 12 -70 2 -13 6 -49 10 -80 3
-31 7 -66 9 -76 8 -41 19 -304 18 -448 -1 -169 -13 -380 -27 -475 -2 -14 -7
-45 -10 -70 -59 -435 -217 -795 -454 -1030 -140 -140 -224 -201 -381 -281
-125 -63 -339 -134 -464 -154 -17 -3 -42 -8 -56 -10 -68 -13 -155 -23 -280
-30 -52 -3 -974 -8 -2049 -10 -1074 -2 -1956 -7 -1959 -10 -4 -4 -7 -181 -7
-393 l0 -387 -79 2 c-44 2 -81 5 -84 7 -4 5 -3 1498 1 1503 6 5 232 52 282 58
84 10 173 7 202 -9 16 -8 57 -45 93 -82 66 -67 98 -86 270 -159 257 -108 504
-133 789 -79 153 28 177 49 205 178 29 132 25 203 -11 247 -55 65 -155 114
-431 213 -171 62 -251 101 -253 125 -1 9 -2 30 -4 47 l-2 32 161 -5 c478 -15
731 -4 951 41 146 30 286 91 352 155 34 32 72 102 102 188 15 43 28 83 29 88
1 6 9 42 18 80 21 93 22 96 40 200 8 50 17 101 19 115 3 14 7 45 10 70 3 25 7
61 10 80 2 19 7 76 11 125 4 50 8 106 10 125 4 50 5 370 0 400 -2 14 -7 49
-11 79 -9 74 -43 180 -67 214 -11 15 -52 49 -91 76 -124 84 -135 99 -178 237
-10 34 -23 84 -29 110 -5 27 -12 60 -15 74 -3 14 -12 66 -20 115 -8 50 -17
104 -20 120 -10 60 -17 99 -21 138 -3 23 -7 44 -10 48 -2 4 13 9 33 11 69 6
1797 1 1838 -5z m-6200 -3032 c33 -3 69 -8 80 -10 11 -3 31 -7 45 -9 115 -19
566 -168 594 -197 11 -10 12 -1657 2 -1667 -4 -3 -60 -6 -126 -8 -110 -2 -192
-7 -295 -19 -22 -3 -60 -7 -85 -10 -25 -2 -90 -9 -145 -15 -199 -20 -360 -25
-495 -15 -190 15 -276 58 -435 219 -179 181 -200 244 -200 606 0 190 3 224 29
321 16 61 66 182 97 233 10 17 22 38 26 46 3 8 9 17 12 20 3 3 23 30 43 60
113 166 294 327 444 393 127 56 236 70 409 52z m-3150 -260 c168 -29 407 -101
525 -158 110 -53 217 -156 328 -314 83 -119 105 -206 106 -408 0 -155 -8 -231
-39 -348 -53 -205 -132 -318 -270 -388 -115 -58 -127 -60 -518 -85 -158 -10
-191 -11 -352 -19 -82 -4 -181 -9 -220 -10 -85 -4 -458 -17 -573 -19 -45 -1
-86 1 -91 4 -8 5 -9 1635 -1 1644 3 2 19 7 35 10 17 3 90 17 163 31 74 14 157
28 185 31 29 4 55 8 58 10 4 2 37 7 75 10 38 4 89 10 114 14 54 8 418 5 475
-5z"/>
</g>
</svg>
